# xmcd
#
# Track frame offsets: 
#        150
#        14251
#        28335
#
# Disc length: 615 seconds
#
# Revision: 0
# Processed by: cddbd v1.5.2PL0 Copyright (c) Steve Scherf et al.
# Submitted via: ExactAudioCopyFreeDBPlugin 1.0
#
DISCID=1d026503
DTITLE=Jake Owen - Jake Owen
DYEAR=2018
DGENRE=Country
TTITLE0=I Was Jack (You Were Diane)
TTITLE1=Something To Ride To
TTITLE2=Made For You
EXTD=
EXTT0=
EXTT1=
EXTT2=
PLAYORDER=
